<svg width="140" height="40" viewBox="0 0 140 40" fill="none" xmlns="http://www.w3.org/2000/svg">
<path d="M25.0091 0C18.8911 1.23405 23.3794 6.07018 18.7145 9.21285C19.1248 9.17136 19.5397 9.15341 19.9553 9.16001C21.3344 9.18203 22.7312 9.47498 24.0697 10.0677C24.4897 10.2536 24.893 10.4628 25.2762 10.6946C26.3013 6.67489 22.1348 2.53423 25.0089 8.47841e-05L25.0091 0ZM9.48824 2.09556C6.03714 7.2906 12.6196 7.54233 11.5547 13.0522C13.0285 11.2525 15.0405 10.0125 17.2407 9.46956C15.1234 5.90178 9.24795 5.91998 9.48824 2.09556ZM34.6614 8.48004C31.9056 8.55387 30.811 12.4014 26.4829 11.5468C28.2905 13.0217 29.5338 15.0394 30.0785 17.2458C33.6605 15.1359 33.6391 9.24748 37.4685 9.48811C36.3314 8.73286 35.4314 8.45938 34.6611 8.48012L34.6614 8.48004ZM19.5929 10.737C17.5899 10.7759 15.6532 11.4838 14.0973 12.7374L15.677 15.7987L12.3035 14.6847C12.0007 15.1304 11.7331 15.6082 11.5071 16.1188C10.7683 17.7875 10.5756 19.5555 10.8484 21.2281L14.6398 21.408L11.7611 23.9745C12.6753 25.7205 14.1669 27.1794 16.1136 28.0411C16.3741 28.1566 16.6373 28.2591 16.9021 28.3482L18.979 25.1096L19.7491 28.8193C22.0605 28.8256 24.2989 27.9398 25.9801 26.3479L24.3556 23.2046L27.6074 24.2763C27.7617 24.0064 27.9048 23.7255 28.0333 23.4349C28.8585 21.5713 29.0034 19.5826 28.5786 17.7434L25.3928 17.5953L27.7371 15.5024C26.8201 13.7926 25.3464 12.3637 23.4296 11.5151C23.3136 11.4637 23.1972 11.4155 23.0804 11.3695L20.8896 14.7827L20.0509 10.7398C20.0086 10.7384 19.9662 10.7378 19.9239 10.7371C19.8138 10.7354 19.7029 10.735 19.5932 10.7371L19.5929 10.737ZM9.20519 14.1211C5.67856 14.1825 2.22145 17.0716 0 14.5524C1.23388 20.6684 6.0677 16.1865 9.21052 20.8444C9.02815 19.0687 9.2896 17.2241 10.0623 15.4784C10.2467 15.0623 10.4549 14.6653 10.6842 14.2852C10.1912 14.1607 9.69864 14.1126 9.20519 14.1211ZM30.33 18.6907C30.5167 20.4727 30.2566 22.3252 29.4808 24.0777L29.4649 24.1094C29.2835 24.5155 29.078 24.9047 28.8536 25.2762C32.8774 26.3129 37.0247 22.1318 39.5616 25.009C38.3252 18.8799 33.4723 23.397 30.33 18.6907ZM9.46961 22.326C5.90311 24.4439 5.91962 30.3162 2.09555 30.0757C7.29608 33.5305 7.54162 26.9326 13.0681 28.0147C11.2609 26.5428 10.0174 24.5292 9.46961 22.326ZM28.0175 26.4668C26.5437 28.2838 24.5261 29.5352 22.3156 30.0839C24.4275 33.6622 30.3165 33.6403 30.076 37.4685C33.5361 32.2597 26.9092 32.0194 28.0175 26.4668ZM14.2852 28.8722C13.2652 32.8902 17.4253 37.0283 14.5524 39.5616C20.6744 38.3266 16.1777 33.4832 20.8577 30.3405C19.0763 30.5271 17.2256 30.2643 15.4733 29.4886C15.0598 29.3055 14.663 29.0996 14.2852 28.8722Z" fill="url(#paint0_radial_117_60)"/>
<path d="M52.8157 28.264C51.4957 28.264 50.3664 28.0367 49.4277 27.582C48.5037 27.1273 47.7484 26.526 47.1617 25.778L48.8997 23.974C49.4717 24.634 50.0877 25.1253 50.7477 25.448C51.4224 25.756 52.1411 25.91 52.9037 25.91C53.7837 25.91 54.4584 25.712 54.9277 25.316C55.3971 24.92 55.6317 24.348 55.6317 23.6C55.6317 22.984 55.4557 22.522 55.1037 22.214C54.7517 21.8913 54.1577 21.664 53.3217 21.532L51.6937 21.268C50.2711 21.0187 49.2591 20.5053 48.6577 19.728C48.0564 18.936 47.7557 18.0047 47.7557 16.934C47.7557 15.4673 48.2324 14.3453 49.1857 13.568C50.1391 12.776 51.4591 12.38 53.1457 12.38C54.3484 12.38 55.3824 12.5707 56.2477 12.952C57.1277 13.3333 57.8317 13.854 58.3597 14.514L56.6657 16.318C56.2551 15.834 55.7637 15.4527 55.1917 15.174C54.6197 14.8807 53.9451 14.734 53.1677 14.734C51.4957 14.734 50.6597 15.4233 50.6597 16.802C50.6597 17.3887 50.8357 17.836 51.1877 18.144C51.5397 18.452 52.1411 18.6793 52.9917 18.826L54.5977 19.112C55.9324 19.3613 56.9224 19.8527 57.5677 20.586C58.2131 21.3193 58.5357 22.258 58.5357 23.402C58.5357 24.1207 58.4111 24.7807 58.1617 25.382C57.9124 25.9687 57.5457 26.482 57.0617 26.922C56.5777 27.3473 55.9764 27.6773 55.2577 27.912C54.5537 28.1467 53.7397 28.264 52.8157 28.264ZM66.1831 28.264C65.1858 28.264 64.3205 28.088 63.5871 27.736C62.8538 27.3693 62.2451 26.8487 61.7611 26.174C61.2918 25.4993 60.9398 24.6707 60.7051 23.688C60.4851 22.7053 60.3751 21.5833 60.3751 20.322C60.3751 19.0753 60.4851 17.9607 60.7051 16.978C60.9398 15.9807 61.2918 15.1447 61.7611 14.47C62.2451 13.7953 62.8538 13.282 63.5871 12.93C64.3205 12.5633 65.1858 12.38 66.1831 12.38C68.1778 12.38 69.6445 13.0767 70.5831 14.47C71.5218 15.8633 71.9911 17.814 71.9911 20.322C71.9911 22.83 71.5218 24.7807 70.5831 26.174C69.6445 27.5673 68.1778 28.264 66.1831 28.264ZM66.1831 25.91C66.6965 25.91 67.1291 25.8147 67.4811 25.624C67.8331 25.4187 68.1118 25.1327 68.3171 24.766C68.5371 24.3993 68.6911 23.952 68.7791 23.424C68.8818 22.8813 68.9331 22.28 68.9331 21.62V19.002C68.9331 17.682 68.7278 16.6407 68.3171 15.878C67.9211 15.1153 67.2098 14.734 66.1831 14.734C65.1565 14.734 64.4378 15.1153 64.0271 15.878C63.6311 16.6407 63.4331 17.682 63.4331 19.002V21.642C63.4331 22.962 63.6311 24.0033 64.0271 24.766C64.4378 25.5287 65.1565 25.91 66.1831 25.91ZM74.9745 28V12.644H77.8565V25.624H84.6545V28H74.9745ZM95.8439 28L94.7659 24.106H90.2119L89.1559 28H86.2519L90.5639 12.644H94.5679L98.9019 28H95.8439ZM92.5879 15.482H92.4119L90.7179 21.752H94.2819L92.5879 15.482ZM100.873 28V25.844H104.327V14.8H100.873V12.644H110.641V14.8H107.187V25.844H110.641V28H100.873ZM116.991 28H114.109V12.644H119.939C121.435 12.644 122.579 13.0693 123.371 13.92C124.163 14.7707 124.559 15.9293 124.559 17.396C124.559 18.5253 124.295 19.4787 123.767 20.256C123.253 21.0187 122.513 21.5027 121.545 21.708L124.823 28H121.655L118.729 22.038H116.991V28ZM119.345 19.794C120.122 19.794 120.679 19.64 121.017 19.332C121.354 19.0093 121.523 18.5033 121.523 17.814V16.978C121.523 16.2887 121.354 15.79 121.017 15.482C120.679 15.1593 120.122 14.998 119.345 14.998H116.991V19.794H119.345ZM127.366 28V12.644H137.068V15.02H130.248V19.024H136.826V21.4H130.248V25.624H137.068V28H127.366Z" fill="white"/>
<defs>
<radialGradient id="paint0_radial_117_60" cx="0" cy="0" r="1" gradientUnits="userSpaceOnUse" gradientTransform="translate(19.7808 19.7808) rotate(90) scale(19.7808)">
<stop offset="0.490385" stop-color="#161616" stop-opacity="0"/>
<stop offset="0.490485" stop-color="#DE770E"/>
</radialGradient>
</defs>
</svg>
