<svg width="40" height="40" viewBox="0 0 40 40" fill="none" xmlns="http://www.w3.org/2000/svg">
<path d="M25.0091 0C18.8911 1.23405 23.3794 6.07018 18.7145 9.21285C19.1248 9.17136 19.5397 9.15341 19.9553 9.16001C21.3344 9.18203 22.7312 9.47498 24.0697 10.0677C24.4897 10.2536 24.893 10.4628 25.2762 10.6946C26.3013 6.67489 22.1348 2.53423 25.0089 8.47841e-05L25.0091 0ZM9.48824 2.09556C6.03714 7.2906 12.6196 7.54233 11.5547 13.0522C13.0285 11.2525 15.0405 10.0125 17.2407 9.46956C15.1234 5.90178 9.24795 5.91998 9.48824 2.09556ZM34.6614 8.48004C31.9056 8.55387 30.811 12.4014 26.4829 11.5468C28.2905 13.0217 29.5338 15.0394 30.0785 17.2458C33.6605 15.1359 33.6391 9.24748 37.4685 9.48811C36.3314 8.73286 35.4314 8.45938 34.6611 8.48012L34.6614 8.48004ZM19.5929 10.737C17.5899 10.7759 15.6532 11.4838 14.0973 12.7374L15.677 15.7987L12.3035 14.6847C12.0007 15.1304 11.7331 15.6082 11.5071 16.1188C10.7683 17.7875 10.5756 19.5555 10.8484 21.2281L14.6398 21.408L11.7611 23.9745C12.6753 25.7205 14.1669 27.1794 16.1136 28.0411C16.3741 28.1566 16.6373 28.2591 16.9021 28.3482L18.979 25.1096L19.7491 28.8193C22.0605 28.8256 24.2989 27.9398 25.9801 26.3479L24.3556 23.2046L27.6074 24.2763C27.7617 24.0064 27.9048 23.7255 28.0333 23.4349C28.8585 21.5713 29.0034 19.5826 28.5786 17.7434L25.3928 17.5953L27.7371 15.5024C26.8201 13.7926 25.3464 12.3637 23.4296 11.5151C23.3136 11.4637 23.1972 11.4155 23.0804 11.3695L20.8896 14.7827L20.0509 10.7398C20.0086 10.7384 19.9662 10.7378 19.9239 10.7371C19.8138 10.7354 19.7029 10.735 19.5932 10.7371L19.5929 10.737ZM9.20519 14.1211C5.67856 14.1825 2.22145 17.0716 0 14.5524C1.23388 20.6684 6.0677 16.1865 9.21052 20.8444C9.02815 19.0687 9.2896 17.2241 10.0623 15.4784C10.2467 15.0623 10.4549 14.6653 10.6842 14.2852C10.1912 14.1607 9.69864 14.1126 9.20519 14.1211ZM30.33 18.6907C30.5167 20.4727 30.2566 22.3252 29.4808 24.0777L29.4649 24.1094C29.2835 24.5155 29.078 24.9047 28.8536 25.2762C32.8774 26.3129 37.0247 22.1318 39.5616 25.009C38.3252 18.8799 33.4723 23.397 30.33 18.6907ZM9.46961 22.326C5.90311 24.4439 5.91962 30.3162 2.09555 30.0757C7.29608 33.5305 7.54162 26.9326 13.0681 28.0147C11.2609 26.5427 10.0174 24.5292 9.46961 22.326ZM28.0175 26.4668C26.5437 28.2838 24.5261 29.5352 22.3156 30.0839C24.4275 33.6622 30.3165 33.6403 30.076 37.4685C33.5361 32.2597 26.9092 32.0194 28.0175 26.4668ZM14.2852 28.8722C13.2652 32.8902 17.4253 37.0283 14.5524 39.5616C20.6744 38.3266 16.1777 33.4832 20.8577 30.3405C19.0763 30.5271 17.2256 30.2643 15.4733 29.4886C15.0598 29.3055 14.663 29.0996 14.2852 28.8722Z" fill="url(#paint0_radial_117_6)"/>
<defs>
<radialGradient id="paint0_radial_117_6" cx="0" cy="0" r="1" gradientUnits="userSpaceOnUse" gradientTransform="translate(19.7808 19.7808) rotate(90) scale(19.7808)">
<stop offset="0.490385" stop-color="#161616" stop-opacity="0"/>
<stop offset="0.490485" stop-color="#DE770E"/>
</radialGradient>
</defs>
</svg>
