<svg width="36" height="36" viewBox="0 0 36 36" fill="none" xmlns="http://www.w3.org/2000/svg">
<g clip-path="url(#clip0_131_250)">
<path d="M18 0.5625C8.36719 0.5625 0.5625 8.36719 0.5625 18C0.5625 27.6328 8.36719 35.4375 18 35.4375C27.6328 35.4375 35.4375 27.6328 35.4375 18C35.4375 8.36719 27.6328 0.5625 18 0.5625ZM18 7.3125C21.4172 7.3125 24.1875 10.0828 24.1875 13.5C24.1875 16.9172 21.4172 19.6875 18 19.6875C14.5828 19.6875 11.8125 16.9172 11.8125 13.5C11.8125 10.0828 14.5828 7.3125 18 7.3125ZM18 31.5C13.8727 31.5 10.1742 29.6297 7.69922 26.7047C9.02109 24.2156 11.6086 22.5 14.625 22.5C14.7937 22.5 14.9625 22.5281 15.1242 22.5773C16.0383 22.8727 16.9945 23.0625 18 23.0625C19.0055 23.0625 19.9688 22.8727 20.8758 22.5773C21.0375 22.5281 21.2062 22.5 21.375 22.5C24.3914 22.5 26.9789 24.2156 28.3008 26.7047C25.8258 29.6297 22.1273 31.5 18 31.5Z" fill="#DE770E"/>
</g>
<defs>
<clipPath id="clip0_131_250">
<rect width="36" height="36" fill="white"/>
</clipPath>
</defs>
</svg>
